<?xml version="1.0" encoding="UTF-8" ?>
<!DOCTYPE svg PUBLIC "-//W3C//DTD SVG 1.1//EN" "http://www.w3.org/Graphics/SVG/1.1/DTD/svg11.dtd">
<svg width="2071pt" height="483pt" viewBox="0 0 2071 483" version="1.1" xmlns="http://www.w3.org/2000/svg">
<path fill="#fcfdfd" d=" M 0.00 0.00 L 2071.00 0.00 L 2071.00 483.00 L 0.00 483.00 L 0.00 0.00 Z" />
<path fill="#0d7ec1" d=" M 1379.23 41.39 C 1434.40 41.44 1489.58 41.40 1544.76 41.41 C 1544.89 75.88 1544.63 110.35 1544.89 144.82 C 1579.37 145.00 1613.87 144.56 1648.35 145.06 C 1648.48 200.52 1648.44 255.99 1648.37 311.46 C 1613.98 311.44 1579.60 311.55 1545.22 311.40 C 1544.25 321.87 1545.05 332.44 1544.79 342.95 C 1544.60 367.06 1545.15 391.21 1544.52 415.31 C 1489.42 414.99 1434.32 415.43 1379.23 415.09 C 1379.15 385.05 1379.22 355.01 1379.19 324.98 C 1379.15 320.46 1379.44 315.91 1378.74 311.43 C 1344.35 311.52 1309.95 311.44 1275.56 311.47 C 1275.65 255.92 1275.40 200.36 1275.69 144.82 C 1310.17 145.00 1344.66 144.82 1379.15 144.79 C 1379.28 110.32 1379.11 75.85 1379.23 41.39 Z" />
<path fill="#0d7ec1" d=" M 1701.91 109.00 C 1705.14 85.89 1710.50 62.40 1722.78 42.28 C 1755.41 60.46 1792.69 69.71 1829.94 70.69 C 1838.57 71.74 1847.30 71.04 1855.98 71.21 C 1862.28 70.33 1868.67 70.85 1874.97 69.90 C 1896.07 68.30 1916.97 64.01 1936.88 56.80 C 1947.96 52.83 1958.63 47.80 1969.12 42.47 C 1980.27 61.17 1985.68 82.69 1989.06 104.02 C 1994.55 142.57 1992.91 182.06 1984.38 220.06 C 1975.32 259.72 1959.03 297.73 1936.44 331.57 C 1925.28 348.60 1912.42 364.55 1897.57 378.50 C 1883.62 391.05 1869.36 403.59 1852.90 412.77 C 1849.90 414.13 1846.39 416.19 1843.11 414.59 C 1832.90 410.31 1824.08 403.44 1815.37 396.75 C 1801.96 385.90 1788.84 374.56 1777.63 361.40 C 1752.73 332.08 1733.36 298.19 1719.90 262.20 C 1701.52 213.59 1695.61 160.51 1701.91 109.00 Z" />
<path fill="#0d7ec1" d=" M 433.38 69.72 C 436.03 69.79 438.70 69.64 441.36 69.87 C 442.38 70.62 442.61 71.96 443.06 73.07 C 464.20 133.95 485.45 194.79 506.50 255.70 C 516.74 255.60 526.98 255.76 537.22 255.60 C 537.17 227.41 537.24 199.21 537.20 171.02 C 537.15 166.88 537.46 162.72 536.79 158.61 C 531.07 158.71 525.35 158.70 519.63 158.62 C 519.61 155.82 519.63 153.02 519.71 150.21 C 534.79 150.23 549.87 150.20 564.96 150.23 C 565.33 154.77 565.19 159.32 565.33 163.87 C 577.25 146.39 603.09 141.92 621.30 151.68 C 631.87 157.51 638.09 169.19 638.68 181.06 C 638.96 205.93 638.47 230.81 638.93 255.68 C 644.72 255.66 650.52 255.67 656.31 255.67 C 656.31 258.53 656.30 261.39 656.28 264.26 C 635.58 264.20 614.89 264.30 594.19 264.20 C 594.16 261.37 594.15 258.55 594.15 255.72 C 599.50 255.64 604.84 255.60 610.19 255.71 C 610.37 229.14 610.20 202.56 610.28 175.99 C 610.09 170.30 608.22 164.08 603.40 160.61 C 599.64 157.51 594.41 157.95 589.89 158.41 C 583.54 159.76 577.89 164.02 574.31 169.38 C 568.78 176.71 566.62 186.01 565.69 194.99 C 565.76 215.22 565.54 235.47 565.81 255.71 C 571.62 255.65 577.43 255.63 583.24 255.72 C 583.24 258.54 583.25 261.37 583.25 264.19 C 538.09 264.29 492.92 264.24 447.76 264.22 C 447.74 261.37 447.74 258.52 447.75 255.68 C 455.80 255.61 463.87 255.78 471.93 255.58 C 466.22 238.14 460.35 220.76 454.59 203.34 C 436.03 203.40 417.46 203.31 398.90 203.38 C 393.51 220.88 387.07 238.06 381.89 255.62 C 389.82 255.74 397.75 255.64 405.68 255.67 C 405.75 258.50 405.77 261.34 405.79 264.17 C 387.90 264.29 370.02 264.29 352.14 264.17 C 352.13 261.33 352.14 258.49 352.21 255.65 C 358.19 255.65 364.17 255.80 370.15 255.52 C 382.99 216.70 396.51 178.11 409.48 139.32 C 410.24 136.14 413.03 132.96 411.53 129.65 C 411.33 128.50 412.97 128.06 413.56 127.36 C 415.53 121.91 417.31 116.39 419.09 110.88 C 424.28 97.31 428.17 83.28 433.38 69.72 Z" />
<path fill="#0d7ec1" d=" M 736.47 70.54 C 751.52 70.45 766.57 70.69 781.62 70.42 C 782.11 100.69 781.48 130.98 781.94 161.25 C 785.69 159.00 788.78 155.80 792.62 153.68 C 804.37 146.50 818.97 145.40 832.26 147.89 C 846.91 150.71 858.64 164.08 859.51 178.97 C 859.45 204.50 859.56 230.03 859.46 255.57 C 865.51 255.79 871.57 255.60 877.63 255.66 C 877.63 258.51 877.63 261.36 877.62 264.21 C 856.24 264.28 834.87 264.22 813.49 264.25 C 813.46 261.39 813.46 258.54 813.49 255.69 C 819.25 255.65 825.01 255.67 830.77 255.69 C 830.86 231.81 830.78 207.93 830.81 184.05 C 830.75 176.71 830.03 168.69 825.02 162.90 C 822.15 160.64 818.86 158.50 815.09 158.31 C 803.62 156.95 792.59 164.55 787.73 174.65 C 783.62 182.08 782.11 190.64 781.77 199.03 C 781.88 217.91 781.64 236.81 781.90 255.69 C 787.70 255.66 793.51 255.65 799.33 255.70 C 799.33 258.53 799.34 261.37 799.34 264.21 C 777.96 264.23 756.59 264.31 735.21 264.16 C 735.22 261.37 735.22 258.57 735.19 255.77 C 741.25 255.49 747.32 255.85 753.38 255.53 C 753.17 196.75 753.40 137.96 753.27 79.18 C 747.68 79.20 742.09 79.14 736.51 79.18 C 736.46 76.30 736.45 73.42 736.47 70.54 Z" />
<path fill="#fcfdfd" d=" M 1736.37 81.08 C 1737.73 77.90 1740.92 81.40 1742.97 81.99 C 1763.17 91.21 1785.08 96.07 1806.96 99.33 C 1818.93 100.65 1830.94 102.11 1843.02 101.68 C 1866.04 102.35 1889.05 99.41 1911.49 94.34 C 1926.21 90.88 1940.65 86.08 1954.25 79.42 C 1958.98 87.21 1960.59 96.29 1962.30 105.10 C 1963.53 112.36 1964.49 119.68 1964.94 127.03 C 1965.99 132.97 1964.99 139.03 1966.02 144.97 C 1966.86 150.97 1965.07 156.91 1965.48 162.92 C 1963.57 207.20 1951.79 251.03 1931.31 290.35 C 1922.62 307.18 1912.47 323.36 1900.23 337.86 C 1886.85 351.94 1872.65 365.26 1857.43 377.35 C 1854.58 379.55 1851.73 381.76 1848.69 383.66 C 1846.87 385.04 1844.21 384.85 1842.49 383.47 C 1835.03 378.39 1828.20 372.46 1821.37 366.59 C 1807.99 354.61 1794.24 342.78 1783.65 328.14 C 1756.89 291.54 1739.01 248.66 1730.79 204.12 C 1727.90 187.61 1725.79 170.86 1726.20 154.07 C 1726.05 140.35 1726.07 126.58 1728.14 112.99 C 1729.68 102.13 1731.46 91.00 1736.37 81.08 Z" />
<path fill="#0d7ec1" d=" M 1744.22 97.99 C 1765.19 107.39 1788.29 110.39 1810.97 112.51 C 1816.09 112.64 1821.32 114.14 1826.41 112.84 C 1826.80 113.06 1827.58 113.50 1827.97 113.72 C 1852.70 114.17 1877.54 113.90 1902.03 110.06 C 1917.52 107.86 1933.01 104.53 1947.32 98.02 C 1952.55 107.47 1953.44 118.52 1954.48 129.07 C 1956.37 149.38 1954.89 169.81 1952.57 190.04 C 1952.51 191.07 1952.79 192.04 1953.41 192.94 L 1952.29 192.18 C 1946.75 233.87 1932.76 275.03 1908.29 309.50 C 1903.86 315.94 1898.47 321.63 1893.89 327.94 C 1887.33 334.35 1880.89 340.88 1874.41 347.37 C 1866.87 353.75 1859.91 360.81 1851.99 366.74 C 1849.86 368.33 1847.77 370.21 1845.05 370.61 C 1829.56 359.48 1815.87 346.10 1802.48 332.57 C 1775.33 304.46 1757.29 268.57 1747.17 231.04 C 1738.52 198.54 1734.94 164.62 1736.88 131.04 C 1738.06 119.84 1738.89 108.16 1744.22 97.99 Z" />
<path fill="#0d7ec1" d=" M 673.23 116.45 C 682.74 117.12 692.13 115.37 701.62 115.22 C 701.58 126.64 701.63 138.06 701.61 149.48 C 710.88 149.56 720.15 149.50 729.42 149.52 C 729.44 152.55 729.44 155.58 729.45 158.61 C 720.17 158.73 710.90 158.58 701.62 158.70 C 701.63 185.82 701.59 212.95 701.64 240.07 C 702.06 245.54 703.52 252.38 709.30 254.53 C 716.30 257.66 724.80 253.04 727.25 246.08 C 727.84 244.32 728.36 242.54 728.89 240.76 C 731.86 240.73 734.84 240.71 737.82 240.68 C 737.09 249.47 732.02 257.82 724.66 262.66 C 715.43 267.90 704.05 268.72 693.95 265.72 C 685.17 263.43 678.33 256.17 675.74 247.58 C 671.70 236.47 673.52 224.52 673.07 212.99 C 673.21 200.33 673.21 187.68 673.06 175.02 C 673.01 169.54 673.65 164.00 672.65 158.56 C 666.66 158.65 660.66 158.85 654.68 158.47 C 654.75 155.50 654.79 152.54 654.81 149.58 C 660.78 149.46 666.76 149.49 672.74 149.56 C 673.75 138.56 672.75 127.48 673.23 116.45 Z" />
<path fill="#fcfdfd" d=" M 416.33 150.89 C 419.30 140.84 422.66 130.90 426.18 121.03 C 434.41 145.68 443.37 170.09 451.73 194.70 C 435.17 194.78 418.60 194.78 402.04 194.72 C 406.54 180.02 411.46 165.46 416.33 150.89 Z" />
<path fill="#fcfdfd" d=" M 1432.55 129.78 C 1445.04 125.67 1458.32 125.02 1471.35 125.87 C 1476.58 126.73 1481.83 127.73 1486.90 129.38 C 1487.06 130.25 1487.48 130.97 1488.15 131.53 C 1489.44 131.50 1490.55 130.05 1491.90 130.96 C 1508.93 136.69 1525.22 145.46 1538.22 157.99 C 1546.46 165.16 1551.65 175.13 1555.63 185.14 C 1531.40 185.29 1507.18 185.15 1482.95 185.21 C 1476.74 185.24 1470.10 182.61 1467.12 176.88 C 1466.19 174.36 1466.42 171.56 1466.74 168.95 C 1468.40 163.35 1474.12 159.75 1474.73 153.72 C 1475.99 146.42 1469.25 139.47 1462.03 139.69 C 1454.11 138.53 1446.27 147.26 1449.06 154.97 C 1450.07 159.06 1453.06 162.14 1455.32 165.56 C 1456.82 168.99 1458.23 173.10 1456.42 176.71 C 1453.87 182.57 1446.93 184.92 1440.99 185.21 C 1417.28 185.13 1393.56 185.32 1369.85 185.11 C 1372.24 178.44 1376.20 172.50 1380.31 166.79 C 1393.10 149.23 1411.78 136.13 1432.55 129.78 Z" />
<path fill="#fcfdfd" d=" M 1831.82 137.96 C 1831.28 134.76 1831.28 131.37 1832.64 128.36 C 1839.49 127.65 1845.24 131.87 1851.00 134.85 C 1852.52 135.85 1855.07 136.61 1854.71 138.92 C 1854.53 144.02 1855.15 149.07 1855.59 154.13 C 1861.87 151.64 1866.07 145.88 1871.85 142.55 C 1876.74 140.57 1883.25 144.58 1881.58 150.19 C 1879.00 154.25 1874.95 157.14 1871.73 160.68 C 1865.26 167.54 1857.82 173.56 1852.48 181.40 C 1845.98 182.45 1839.44 179.50 1832.91 179.21 C 1831.02 179.42 1831.14 177.13 1830.81 175.95 C 1830.07 172.24 1830.28 168.45 1830.33 164.70 C 1832.76 164.14 1835.22 163.45 1837.39 162.11 C 1837.37 161.35 1837.32 159.83 1837.30 159.07 C 1841.54 159.56 1845.62 161.45 1849.95 161.10 C 1849.14 160.31 1848.34 159.54 1847.56 158.78 C 1844.49 158.21 1841.57 157.08 1838.87 155.56 C 1840.77 154.95 1842.81 154.56 1844.54 153.44 C 1843.31 146.36 1837.20 141.91 1831.82 137.96 Z" />
<path fill="#fcfdfd" d=" M 1796.98 143.98 C 1802.82 139.23 1810.63 138.15 1817.94 138.57 C 1824.33 138.12 1830.80 140.05 1836.02 143.75 C 1838.84 145.76 1841.13 148.73 1841.11 152.35 C 1837.82 153.17 1834.48 154.57 1831.04 153.99 C 1826.94 153.32 1822.77 153.24 1818.64 153.56 C 1823.06 156.95 1829.08 157.17 1833.60 160.48 C 1834.41 161.69 1832.90 162.29 1831.98 162.48 C 1824.49 164.31 1816.78 162.65 1809.54 160.60 C 1807.57 159.79 1806.43 161.69 1805.37 162.91 L 1806.74 162.38 C 1805.54 167.82 1809.11 172.97 1813.82 175.35 C 1821.22 179.32 1829.71 180.48 1837.89 181.86 C 1838.91 184.97 1840.96 182.06 1842.96 182.51 C 1850.04 183.49 1857.00 185.44 1863.65 188.04 C 1872.34 191.65 1879.39 200.30 1878.74 210.06 C 1879.54 223.21 1867.45 234.93 1854.44 234.46 C 1852.86 227.76 1852.28 220.78 1853.23 213.95 C 1855.01 213.22 1857.95 212.48 1857.50 209.95 C 1857.14 207.37 1855.54 204.50 1852.92 203.73 C 1839.20 201.98 1824.93 202.56 1811.84 197.49 C 1803.93 194.85 1797.07 189.56 1792.13 182.90 C 1783.90 171.13 1785.77 153.22 1796.98 143.98 Z" />
<path fill="#0d7ec1" d=" M 1820.92 143.35 C 1824.03 143.16 1827.18 143.07 1830.27 143.79 C 1829.98 144.48 1829.42 145.87 1829.14 146.57 C 1826.12 146.30 1823.57 144.62 1820.92 143.35 Z" />
<path fill="#0d7ec1" d=" M 1394.98 171.40 C 1405.20 158.42 1419.40 147.98 1435.75 144.43 C 1435.50 144.76 1434.99 145.43 1434.74 145.76 C 1434.40 149.46 1433.78 153.23 1434.57 156.92 C 1435.55 162.36 1440.59 166.02 1441.12 171.61 C 1425.74 171.49 1410.34 171.93 1394.98 171.40 Z" />
<path fill="#0d7ec1" d=" M 1488.38 144.39 C 1497.25 146.93 1505.47 151.43 1512.65 157.21 C 1518.05 161.71 1523.61 166.10 1528.16 171.52 C 1512.86 171.78 1497.57 171.52 1482.28 171.66 C 1482.41 167.04 1486.54 164.14 1487.95 159.98 C 1490.03 155.00 1489.07 149.55 1488.38 144.39 Z" />
<path fill="#0d7ec1" d=" M 887.17 178.12 C 894.36 162.58 908.85 150.39 925.84 147.25 C 940.50 145.46 956.35 147.68 968.40 156.77 C 981.93 166.64 987.72 184.08 987.49 200.31 C 962.76 200.13 938.03 200.23 913.30 200.26 C 913.26 210.16 913.26 220.06 913.27 229.97 C 913.37 238.74 916.71 247.94 923.75 253.50 C 930.12 257.90 938.44 259.24 945.96 257.58 C 961.75 254.81 974.45 240.56 975.89 224.67 C 979.20 224.62 982.52 224.59 985.84 224.59 C 984.71 235.14 979.76 244.96 972.82 252.89 C 961.23 265.01 943.14 269.76 926.89 266.38 C 920.47 265.52 914.65 262.58 908.81 259.99 C 907.29 258.46 905.35 257.47 903.66 256.19 C 892.04 247.62 884.29 234.31 881.72 220.19 C 879.27 206.06 880.98 191.10 887.17 178.12 Z" />
<path fill="#0d7ec1" d=" M 1060.07 148.10 C 1071.67 145.80 1084.61 145.69 1095.01 152.07 C 1099.64 154.60 1102.63 159.07 1105.82 163.10 C 1107.04 161.25 1108.44 159.51 1110.31 158.26 C 1117.01 151.84 1126.03 148.22 1135.17 147.16 C 1145.25 145.99 1156.07 146.77 1164.87 152.29 C 1171.39 156.93 1176.64 163.87 1177.79 171.95 C 1178.98 178.23 1178.50 184.63 1178.58 190.97 C 1178.56 212.50 1178.64 234.03 1178.54 255.55 C 1184.53 255.78 1190.54 255.68 1196.54 255.62 C 1196.43 258.40 1197.35 261.63 1196.17 264.15 C 1175.19 264.30 1154.19 264.32 1133.20 264.13 C 1133.22 261.32 1133.23 258.51 1133.22 255.71 C 1138.74 255.64 1144.25 255.68 1149.78 255.68 C 1149.92 230.45 1149.83 205.22 1149.82 179.99 C 1149.49 174.26 1149.47 167.93 1145.80 163.18 C 1142.94 159.72 1138.43 157.90 1133.98 158.18 C 1125.52 158.75 1117.34 163.77 1113.36 171.32 C 1110.35 177.07 1109.46 183.62 1108.80 189.99 C 1107.63 211.86 1108.34 233.78 1108.18 255.68 C 1113.54 255.67 1118.90 255.67 1124.27 255.67 C 1124.27 258.51 1124.26 261.35 1124.24 264.19 C 1103.71 264.32 1083.17 264.19 1062.64 264.25 C 1062.61 261.38 1062.61 258.52 1062.62 255.65 C 1067.98 255.67 1073.35 255.67 1078.72 255.67 C 1078.77 230.13 1078.70 204.60 1078.76 179.06 C 1078.80 174.74 1078.32 170.33 1076.81 166.27 C 1074.51 162.22 1070.62 158.59 1065.77 158.23 C 1056.18 157.44 1046.98 163.38 1042.39 171.59 C 1038.51 178.38 1038.53 186.45 1037.54 193.99 C 1037.41 214.54 1037.47 235.09 1037.51 255.64 C 1042.52 255.65 1047.53 255.73 1052.55 255.56 C 1053.38 258.19 1053.48 261.02 1052.97 263.73 C 1051.45 264.57 1049.64 264.14 1048.01 264.27 C 1028.74 264.16 1009.48 264.33 990.21 264.20 C 990.21 261.38 990.21 258.56 990.20 255.74 C 996.38 255.61 1002.56 255.67 1008.74 255.69 C 1008.69 223.32 1009.02 190.93 1008.57 158.56 C 1002.46 158.76 996.34 158.64 990.24 158.65 C 990.20 155.84 990.20 153.04 990.25 150.23 C 1005.71 150.30 1021.18 150.04 1036.64 150.35 C 1036.78 153.63 1036.78 156.90 1036.83 160.18 C 1043.78 154.84 1051.30 149.78 1060.07 148.10 Z" />
<path fill="#fcfdfd" d=" M 916.97 164.00 C 920.70 158.96 926.50 154.98 933.01 155.37 C 940.37 154.58 948.55 158.15 951.68 165.13 C 956.04 172.99 954.27 182.26 954.45 190.84 C 940.47 190.67 926.48 191.01 912.50 190.66 C 912.72 181.72 911.98 171.90 916.97 164.00 Z" />
<path fill="#fcfdfd" d=" M 1501.54 197.31 C 1520.56 195.18 1539.59 192.96 1558.73 192.28 C 1571.56 226.99 1564.25 268.68 1539.06 296.05 C 1534.43 300.41 1530.37 305.44 1525.06 309.02 C 1510.40 281.58 1495.83 254.11 1481.11 226.71 C 1478.17 221.71 1476.06 215.84 1477.05 209.98 C 1477.02 205.97 1480.31 203.18 1483.28 201.04 C 1488.77 197.81 1495.36 197.75 1501.54 197.31 Z" />
<path fill="#fcfdfd" d=" M 1366.01 193.21 C 1375.66 192.37 1385.37 193.82 1395.02 194.44 C 1406.35 195.44 1417.62 197.11 1428.97 197.84 C 1435.11 198.63 1442.54 200.22 1445.59 206.29 C 1448.07 212.21 1446.49 218.99 1443.62 224.48 C 1428.59 252.19 1414.00 280.13 1398.84 307.77 C 1393.39 304.20 1389.04 299.23 1384.71 294.42 C 1377.70 286.07 1371.71 276.70 1367.87 266.47 C 1358.08 243.42 1358.00 216.80 1366.01 193.21 Z" />
<path fill="#fcfdfd" d=" M 1831.20 205.25 C 1831.62 203.82 1833.27 204.48 1834.34 204.40 C 1839.82 204.47 1845.25 205.58 1850.75 205.30 C 1850.80 216.10 1850.83 226.91 1850.71 237.71 C 1845.09 237.32 1839.53 236.36 1833.91 236.18 C 1831.33 229.02 1827.54 222.31 1825.40 215.00 C 1826.92 211.57 1829.33 208.53 1831.20 205.25 Z" />
<path fill="#0d7ec1" d=" M 1375.62 208.43 C 1391.46 209.34 1407.28 210.98 1423.12 211.93 C 1425.20 212.21 1427.33 212.27 1429.42 212.69 C 1431.25 213.60 1430.90 215.97 1430.26 217.55 C 1421.33 234.29 1412.50 251.10 1403.60 267.87 C 1400.92 273.58 1397.30 278.82 1395.00 284.71 C 1389.39 277.81 1384.56 270.20 1381.08 262.01 C 1373.63 245.31 1372.18 226.29 1375.62 208.43 Z" />
<path fill="#0d7ec1" d=" M 1532.93 209.52 C 1537.99 209.22 1543.01 208.22 1548.12 208.45 C 1549.33 218.12 1550.02 227.91 1549.01 237.63 C 1547.01 254.61 1539.71 270.84 1528.99 284.06 C 1527.42 282.62 1526.61 280.59 1525.56 278.80 C 1516.53 261.12 1506.86 243.79 1497.89 226.09 C 1495.78 222.47 1493.60 218.85 1492.37 214.83 C 1493.64 211.88 1497.39 212.49 1500.02 211.96 C 1510.99 211.31 1521.94 210.11 1532.93 209.52 Z" />
<path fill="#fcfdfd" d=" M 1814.39 239.88 C 1813.54 232.15 1816.66 222.74 1824.56 219.86 C 1827.34 225.97 1829.77 232.23 1832.53 238.35 C 1841.08 238.50 1849.78 239.30 1858.00 241.82 C 1865.65 244.12 1872.60 250.64 1872.78 259.05 C 1873.96 270.36 1864.54 281.07 1853.30 281.82 C 1852.43 276.88 1852.83 271.80 1853.91 266.94 C 1854.68 265.57 1856.22 264.94 1857.48 264.08 C 1858.73 260.11 1853.91 258.54 1850.86 258.48 C 1842.88 258.30 1834.87 257.55 1827.15 255.51 C 1820.21 253.52 1814.96 247.06 1814.39 239.88 Z" />
<path fill="#0d7ec1" d=" M 1214.31 236.32 C 1219.86 230.19 1229.85 228.72 1236.83 233.22 C 1241.11 236.14 1244.96 240.48 1245.48 245.85 C 1246.61 251.81 1244.41 258.10 1240.29 262.45 C 1236.38 265.82 1231.19 267.88 1225.98 267.41 C 1220.19 266.76 1214.41 263.66 1211.58 258.41 C 1209.70 255.61 1209.44 252.20 1208.88 248.99 C 1209.39 244.36 1210.69 239.52 1214.31 236.32 Z" />
<path fill="#fcfdfd" d=" M 1224.36 234.53 C 1229.10 233.65 1234.07 235.18 1237.69 238.31 C 1240.88 241.26 1242.08 245.79 1241.81 250.03 C 1242.09 256.12 1237.11 261.64 1231.45 263.22 C 1227.00 263.90 1221.98 263.79 1218.40 260.70 C 1211.35 255.52 1210.93 244.11 1217.33 238.24 C 1219.40 236.58 1221.78 235.22 1224.36 234.53 Z" />
<path fill="#fcfdfd" d=" M 1455.00 238.00 C 1457.31 234.53 1462.00 234.80 1465.60 235.58 C 1468.78 237.39 1470.44 240.86 1472.46 243.77 C 1487.94 267.04 1504.05 289.88 1519.72 313.02 C 1503.04 324.10 1483.10 330.52 1463.00 330.22 C 1442.16 330.70 1421.42 323.91 1404.29 312.16 C 1421.34 287.55 1438.22 262.80 1455.00 238.00 Z" />
<path fill="#0d7ec1" d=" M 1220.65 238.21 C 1225.10 238.54 1229.73 237.61 1234.09 238.79 C 1237.67 240.09 1237.09 244.43 1236.42 247.39 C 1235.28 249.24 1233.12 249.95 1231.29 250.84 C 1233.34 253.68 1235.35 256.57 1237.09 259.63 C 1236.08 259.62 1234.07 259.59 1233.06 259.58 C 1231.34 256.49 1229.42 253.52 1227.43 250.61 C 1226.35 250.56 1225.29 250.51 1224.25 250.46 C 1223.79 253.53 1223.68 256.64 1223.74 259.74 C 1222.65 259.65 1221.57 259.57 1220.51 259.49 C 1220.67 252.40 1220.44 245.30 1220.65 238.21 Z" />
<path fill="#fcfdfd" d=" M 1224.12 241.60 C 1227.32 241.46 1230.60 241.38 1233.65 242.60 C 1233.36 244.06 1233.61 246.30 1231.81 246.88 C 1229.23 247.72 1226.42 247.18 1223.76 247.31 C 1223.85 245.40 1223.98 243.50 1224.12 241.60 Z" />
<path fill="#0d7ec1" d=" M 1444.61 278.43 C 1450.08 270.48 1455.05 262.04 1461.75 255.03 C 1467.05 260.33 1470.88 266.86 1475.27 272.90 C 1482.96 284.30 1490.43 295.84 1497.83 307.44 C 1487.27 313.46 1474.86 314.66 1462.97 315.41 C 1450.31 315.16 1437.34 313.51 1425.87 307.80 C 1431.40 297.59 1438.35 288.21 1444.61 278.43 Z" />
<path fill="#fcfdfd" d=" M 1836.35 259.53 C 1841.08 260.11 1845.83 260.52 1850.63 260.37 C 1850.91 269.88 1850.81 279.39 1850.71 288.90 C 1845.68 287.53 1840.80 285.50 1836.66 282.29 C 1837.16 274.69 1835.90 267.13 1836.35 259.53 Z" />
<path fill="#fcfdfd" d=" M 1827.06 270.04 C 1829.03 268.86 1831.37 268.67 1833.63 268.53 C 1835.08 272.24 1834.41 276.29 1835.25 280.13 C 1835.87 281.80 1834.06 282.82 1833.24 283.97 C 1839.99 286.10 1846.17 289.70 1852.85 292.07 C 1858.14 293.91 1862.96 298.06 1864.00 303.79 C 1866.05 312.73 1859.71 321.55 1851.80 325.17 C 1851.32 320.14 1851.93 315.10 1851.52 310.08 C 1850.52 305.97 1846.42 303.71 1842.93 301.96 C 1836.56 299.69 1829.20 298.81 1824.39 293.55 C 1817.34 287.49 1818.38 274.09 1827.06 270.04 Z" />
<path fill="#fcfdfd" d=" M 1838.09 303.98 C 1842.52 304.70 1848.18 306.06 1849.60 310.98 C 1850.97 318.93 1850.32 327.09 1849.63 335.08 C 1849.72 339.87 1849.56 344.66 1848.70 349.39 C 1848.04 349.63 1846.73 350.10 1846.07 350.34 C 1843.85 350.15 1841.67 349.81 1839.51 349.41 C 1838.95 339.63 1840.01 329.80 1838.72 320.07 C 1838.54 314.70 1839.05 309.30 1838.09 303.98 Z" />
<path fill="#fcfdfd" d=" M 1826.56 339.58 C 1823.85 332.13 1826.63 323.03 1833.56 318.85 C 1834.62 321.78 1834.86 324.91 1834.69 328.00 C 1834.85 330.32 1832.61 331.75 1832.11 333.88 C 1831.44 336.13 1831.00 338.44 1830.40 340.70 C 1829.06 340.62 1827.20 341.14 1826.56 339.58 Z" />
<path fill="#312e2f" d=" M 290.73 336.76 C 302.13 326.24 320.27 321.91 334.40 329.36 C 336.18 330.02 337.56 332.27 339.63 331.77 C 340.26 330.38 340.76 328.94 341.32 327.53 C 342.75 327.56 344.19 327.59 345.63 327.64 C 345.62 335.38 345.47 343.12 346.41 350.82 C 344.70 350.87 342.99 350.89 341.28 350.92 C 340.41 345.06 338.08 339.35 333.96 335.03 C 326.63 328.18 313.94 327.63 306.42 334.43 C 300.01 340.82 299.09 350.31 297.87 358.81 C 297.94 365.94 296.37 373.05 297.54 380.16 C 297.76 388.88 298.79 398.00 303.25 405.68 C 306.12 410.92 312.26 413.42 317.98 413.74 C 325.69 413.24 333.35 409.23 337.50 402.59 C 339.93 399.05 341.38 394.96 342.61 390.88 C 344.32 390.96 346.04 391.07 347.75 391.21 C 346.60 395.37 347.04 399.69 346.76 403.95 C 346.09 408.05 346.25 412.22 346.28 416.36 C 344.89 416.32 343.51 416.28 342.13 416.23 C 341.03 414.47 339.93 412.73 338.86 410.96 C 333.94 415.23 327.52 417.71 320.99 417.68 C 317.64 417.64 314.28 417.75 310.93 417.61 C 299.16 416.12 288.14 409.21 282.18 398.88 C 271.24 379.36 273.91 352.17 290.73 336.76 Z" />
<path fill="#312e2f" d=" M 876.99 330.05 C 884.02 325.30 893.20 324.68 901.28 326.68 C 904.72 327.51 907.60 329.64 910.81 331.05 C 912.13 329.60 913.51 328.20 914.92 326.82 C 915.78 326.82 917.50 326.82 918.36 326.82 C 918.43 335.09 918.27 343.35 918.44 351.61 C 916.86 351.55 915.22 351.83 913.71 351.40 C 912.20 345.61 910.53 339.34 905.68 335.37 C 898.57 327.90 883.88 328.17 878.57 337.60 C 876.23 341.74 876.07 347.35 878.89 351.31 C 880.49 354.17 883.68 355.53 886.59 356.69 C 896.46 360.47 907.44 361.78 916.36 367.79 C 920.38 370.28 922.46 374.79 924.24 378.99 C 926.51 386.91 926.14 395.86 922.11 403.17 C 917.95 412.24 907.97 418.28 898.00 417.68 C 893.97 417.56 889.80 418.15 885.95 416.68 C 881.60 415.63 877.92 413.07 874.05 410.97 C 872.70 412.74 871.38 414.53 870.05 416.32 C 868.63 416.31 867.22 416.31 865.82 416.31 C 865.85 407.93 865.86 399.55 865.82 391.18 C 867.25 391.06 868.69 390.95 870.14 390.85 C 872.11 396.37 874.31 402.15 878.86 406.10 C 884.74 411.36 893.18 414.63 901.02 412.37 C 909.53 410.63 916.05 401.09 913.16 392.57 C 911.10 386.25 904.32 383.38 898.43 381.71 C 887.84 378.23 875.37 376.18 868.47 366.44 C 864.67 359.57 864.97 351.24 866.80 343.83 C 868.43 338.16 872.51 333.68 876.99 330.05 Z" />
<path fill="#312e2f" d=" M 107.30 328.23 C 115.51 328.57 123.71 327.81 131.84 327.02 C 132.39 329.62 132.09 332.31 132.15 334.95 C 132.14 360.76 132.13 386.56 132.16 412.37 C 134.93 412.37 137.71 412.38 140.48 412.42 C 140.47 413.40 140.46 415.35 140.45 416.32 C 129.43 416.33 118.41 416.32 107.39 416.33 C 107.37 415.35 107.35 413.38 107.34 412.39 C 110.15 412.38 112.95 412.38 115.76 412.40 C 115.83 385.67 115.78 358.94 115.78 332.20 C 113.02 332.19 110.26 332.20 107.50 332.27 C 107.43 330.92 107.36 329.57 107.30 328.23 Z" />
<path fill="#312e2f" d=" M 694.33 328.21 C 702.62 328.38 710.94 328.21 719.12 326.73 C 719.15 355.28 719.11 383.84 719.15 412.40 C 721.93 412.38 724.72 412.37 727.52 412.43 C 727.50 413.40 727.45 415.35 727.43 416.32 C 716.41 416.32 705.38 416.32 694.36 416.34 C 694.36 415.35 694.37 413.36 694.38 412.36 C 697.17 412.36 699.98 412.37 702.78 412.39 C 702.81 385.67 702.80 358.94 702.78 332.21 C 700.01 332.20 697.25 332.21 694.49 332.27 C 694.42 330.91 694.37 329.56 694.33 328.21 Z" />
<path fill="#312e2f" d=" M 931.95 328.22 C 940.17 328.27 948.43 327.89 956.56 326.68 C 956.51 341.73 956.83 356.79 956.40 371.83 C 960.27 366.40 966.60 363.43 972.91 361.86 C 977.90 361.63 983.20 361.84 987.68 364.33 C 991.09 366.72 993.55 370.71 993.45 374.96 C 993.47 387.44 993.35 399.92 993.51 412.40 C 996.27 412.38 999.03 412.38 1001.81 412.37 C 1001.82 413.68 1001.83 414.99 1001.87 416.31 C 991.48 416.34 981.10 416.32 970.72 416.32 C 970.71 415.01 970.71 413.70 970.72 412.40 C 972.86 412.39 975.02 412.38 977.18 412.40 C 977.25 399.90 977.21 387.41 977.21 374.91 C 977.47 372.18 975.45 370.20 973.74 368.40 C 970.66 368.19 967.33 367.96 964.62 369.71 C 958.98 372.97 956.68 379.82 956.59 386.01 C 956.60 394.79 956.58 403.58 956.62 412.37 C 959.19 412.37 961.76 412.38 964.34 412.39 C 964.35 413.38 964.35 415.35 964.36 416.33 C 953.49 416.29 942.63 416.38 931.77 416.29 C 932.16 415.14 931.02 412.28 933.05 412.42 C 935.46 412.28 937.88 412.36 940.31 412.38 C 940.39 385.72 940.19 359.06 940.42 332.41 C 937.55 332.17 934.69 332.16 931.84 332.20 C 931.86 330.87 931.90 329.54 931.95 328.22 Z" />
<path fill="#312e2f" d=" M 1100.23 328.23 C 1108.36 328.25 1116.60 328.41 1124.58 326.62 C 1125.28 355.21 1124.46 383.85 1124.99 412.46 C 1127.75 412.36 1130.51 412.34 1133.28 412.33 C 1133.28 413.34 1133.29 415.34 1133.29 416.34 C 1122.25 416.30 1111.20 416.35 1100.17 416.31 C 1100.17 414.99 1100.19 413.68 1100.23 412.38 C 1103.00 412.37 1105.77 412.37 1108.55 412.41 C 1108.69 385.68 1108.63 358.95 1108.58 332.21 C 1105.77 332.20 1102.97 332.21 1100.17 332.20 C 1100.18 330.87 1100.20 329.55 1100.23 328.23 Z" />
<path fill="#312e2f" d=" M 1170.18 327.56 C 1178.30 327.39 1186.52 328.28 1194.54 326.59 C 1195.07 355.17 1194.58 383.78 1194.78 412.38 C 1197.35 412.39 1199.94 412.38 1202.53 412.36 C 1202.50 413.69 1202.48 415.01 1202.47 416.35 C 1194.23 416.29 1185.99 416.36 1177.76 416.31 C 1177.76 414.16 1177.77 412.03 1177.84 409.89 C 1174.71 414.43 1169.63 417.73 1164.01 417.70 C 1155.83 418.08 1147.34 414.10 1143.09 406.97 C 1139.76 402.33 1138.77 396.57 1138.34 391.01 C 1138.31 380.87 1142.39 369.75 1151.85 364.83 C 1159.99 359.87 1171.58 361.01 1177.70 368.64 C 1177.92 356.50 1177.76 344.36 1177.80 332.22 C 1175.24 332.21 1172.68 332.21 1170.14 332.23 C 1170.12 330.67 1170.14 329.12 1170.18 327.56 Z" />
<path fill="#312e2f" d=" M 23.82 327.62 C 38.54 327.54 53.27 327.63 68.00 327.58 C 76.11 327.77 84.89 329.22 91.09 334.91 C 96.83 340.46 98.22 349.45 95.74 356.85 C 93.77 362.02 89.44 366.20 84.18 367.94 C 82.06 368.61 79.90 369.16 77.85 370.04 C 85.74 370.65 93.57 374.31 98.02 381.04 C 100.62 385.89 101.91 391.67 100.57 397.10 C 99.35 405.58 92.15 412.39 83.91 414.16 C 77.12 416.39 69.94 415.24 62.99 416.32 C 49.96 416.33 36.92 416.33 23.88 416.31 C 23.85 415.37 23.79 413.48 23.75 412.53 C 27.26 412.35 30.76 412.36 34.27 412.38 C 34.27 385.45 34.24 358.53 34.29 331.61 C 30.81 331.50 27.34 331.53 23.86 331.47 C 23.85 330.51 23.83 328.58 23.82 327.62 Z" />
<path fill="#312e2f" d=" M 610.17 327.65 C 625.77 327.54 641.37 327.60 656.97 327.61 C 663.22 328.20 669.89 328.96 675.11 332.78 C 679.18 335.25 681.93 339.49 683.26 343.99 C 683.45 349.42 684.48 355.53 681.01 360.23 C 677.68 366.11 670.88 368.09 664.90 370.05 C 672.95 370.69 681.11 374.49 685.30 381.64 C 687.85 386.57 688.81 392.47 687.42 397.91 C 686.67 402.97 683.13 406.92 679.53 410.28 C 673.22 414.48 665.43 415.95 657.95 415.71 C 642.09 416.93 626.13 416.09 610.22 416.30 C 610.22 415.00 610.23 413.71 610.25 412.42 C 613.91 412.36 617.58 412.37 621.25 412.38 C 621.25 385.43 621.25 358.49 621.25 331.54 C 617.59 331.52 613.94 331.52 610.29 331.54 C 610.24 330.24 610.20 328.94 610.17 327.65 Z" />
<path fill="#fcfdfd" d=" M 53.14 331.56 C 58.95 331.45 64.86 331.28 70.50 332.90 C 73.35 333.83 75.31 336.42 76.17 339.21 C 78.55 346.86 78.17 355.24 75.37 362.72 C 73.21 365.16 70.49 367.45 67.10 367.68 C 62.46 367.85 57.81 367.66 53.17 367.74 C 53.16 355.68 53.20 343.62 53.14 331.56 Z" />
<path fill="#fcfdfd" d=" M 640.14 331.57 C 646.97 331.82 655.08 330.33 660.74 335.06 C 664.19 339.10 664.40 344.93 664.70 349.99 C 664.62 356.43 663.30 364.95 656.24 367.25 C 650.97 368.30 645.51 367.48 640.17 367.72 C 640.12 355.67 640.19 343.62 640.14 331.57 Z" />
<path fill="#312e2f" d=" M 1010.17 340.98 C 1009.61 334.56 1017.12 329.52 1022.94 332.02 C 1026.91 333.17 1028.58 337.36 1029.28 341.06 C 1028.45 344.65 1026.76 348.75 1022.82 349.78 C 1017.05 352.18 1009.81 347.27 1010.17 340.98 Z" />
<path fill="#312e2f" d=" M 435.74 362.03 C 443.62 361.01 451.76 363.24 458.28 367.72 C 470.87 376.75 473.00 397.06 462.56 408.51 C 455.27 415.97 444.11 419.03 433.96 417.01 C 424.52 415.92 415.60 409.97 411.73 401.17 C 408.91 395.57 409.45 389.10 409.96 383.08 C 412.22 371.00 424.13 363.24 435.74 362.03 Z" />
<path fill="#312e2f" d=" M 559.47 361.11 C 560.71 361.22 561.96 361.33 563.22 361.45 C 563.08 367.02 563.18 372.59 563.15 378.17 C 562.22 378.17 560.36 378.19 559.43 378.19 C 558.36 371.12 551.97 366.19 545.00 365.93 C 542.79 366.54 540.43 367.05 538.64 368.57 C 537.63 369.90 537.01 371.47 536.29 372.96 C 537.04 374.95 537.81 377.11 539.74 378.29 C 546.64 381.83 555.05 381.80 561.43 386.50 C 570.55 393.19 567.84 408.32 559.26 414.24 C 552.45 418.81 543.13 418.73 536.18 414.50 C 534.77 413.54 533.14 413.10 531.46 413.04 C 531.11 414.15 530.76 415.26 530.42 416.39 C 529.50 416.37 527.66 416.32 526.74 416.30 C 526.80 409.55 526.75 402.79 526.77 396.03 C 528.26 396.20 529.77 396.39 531.27 396.61 C 531.43 402.24 534.28 408.04 539.34 410.81 C 542.86 412.92 547.26 414.50 551.29 412.94 C 554.37 411.98 557.82 409.57 557.85 406.01 C 558.33 403.31 555.91 401.44 553.91 400.19 C 547.73 397.50 540.81 396.74 534.93 393.33 C 529.83 390.67 526.78 384.70 527.35 379.01 C 526.68 372.53 530.67 366.39 536.24 363.36 C 540.13 361.90 544.47 361.23 548.56 362.27 C 551.93 362.93 554.88 364.89 558.31 365.38 C 558.70 363.95 559.08 362.53 559.47 361.11 Z" />
<path fill="#312e2f" d=" M 809.53 370.67 C 815.53 363.74 825.27 361.07 834.17 361.92 C 841.45 363.08 848.67 366.94 852.36 373.54 C 854.73 377.47 855.51 382.06 856.45 386.49 C 844.53 386.69 832.62 386.50 820.70 386.58 C 820.92 393.98 819.47 402.18 823.83 408.72 C 827.82 413.74 835.51 413.99 840.83 411.06 C 845.81 408.57 849.00 403.81 851.99 399.29 C 853.25 399.87 854.50 400.47 855.79 401.04 C 852.74 407.96 847.32 414.41 839.79 416.46 C 830.13 419.36 819.08 417.11 811.45 410.47 C 800.45 400.49 799.78 381.73 809.53 370.67 Z" />
<path fill="#312e2f" d=" M 1048.83 372.02 C 1058.20 359.37 1079.60 358.05 1090.05 370.05 C 1094.36 374.39 1095.90 380.63 1096.55 386.53 C 1084.63 386.65 1072.71 386.52 1060.79 386.58 C 1060.94 394.41 1059.73 403.51 1065.27 409.90 C 1069.52 413.89 1076.17 413.45 1081.17 411.21 C 1086.06 408.53 1089.34 403.83 1092.31 399.26 C 1093.55 399.93 1094.80 400.58 1096.07 401.24 C 1093.18 407.47 1088.43 413.33 1081.85 415.82 C 1073.34 419.29 1063.42 417.68 1055.54 413.35 C 1041.90 404.95 1039.07 384.37 1048.83 372.02 Z" />
<path fill="#312e2f" d=" M 230.10 364.91 C 240.59 359.68 255.03 360.87 262.94 370.09 C 266.94 374.63 268.38 380.67 269.43 386.46 C 257.52 386.74 245.61 386.48 233.70 386.59 C 234.01 393.60 232.44 401.30 236.29 407.63 C 239.53 413.54 247.85 414.39 253.35 411.28 C 258.69 408.95 262.00 404.00 264.99 399.25 C 266.27 399.85 267.54 400.45 268.83 401.04 C 265.65 408.51 259.36 415.27 251.13 416.86 C 238.21 420.19 222.89 413.72 217.93 400.95 C 215.47 395.97 216.14 390.29 216.21 384.93 C 217.28 376.57 222.40 368.60 230.10 364.91 Z" />
<path fill="#312e2f" d=" M 385.76 363.73 C 390.71 360.98 397.80 360.74 401.84 365.21 C 405.91 369.47 405.53 376.98 400.71 380.53 C 397.72 381.35 394.27 382.12 391.43 380.46 C 389.53 379.57 388.65 377.55 387.56 375.91 C 387.22 372.64 388.42 369.64 389.67 366.70 C 384.04 368.72 381.05 374.63 379.29 379.96 C 376.89 390.61 378.47 401.59 378.11 412.39 C 381.52 412.37 384.93 412.37 388.34 412.41 C 388.32 413.71 388.32 415.02 388.31 416.33 C 376.68 416.37 365.06 416.22 353.44 416.40 C 353.37 415.07 353.32 413.74 353.27 412.41 C 356.06 412.36 358.84 412.34 361.64 412.40 C 361.87 397.34 361.69 382.27 361.73 367.21 C 359.09 367.18 356.45 367.33 353.82 367.07 C 352.77 366.26 353.54 364.43 353.24 363.24 C 358.15 363.05 363.07 363.31 367.98 363.15 C 371.52 362.72 375.08 362.39 378.66 362.56 C 378.70 365.72 378.70 368.90 378.27 372.04 C 380.07 368.76 382.19 365.31 385.76 363.73 Z" />
<path fill="#312e2f" d=" M 482.74 366.66 C 487.28 361.67 494.88 360.86 501.07 362.70 C 503.78 363.30 506.10 365.37 508.98 365.15 C 509.57 363.95 509.93 362.68 510.07 361.34 C 511.56 361.27 513.06 361.21 514.56 361.18 C 514.52 366.85 514.56 372.53 514.51 378.20 C 513.02 378.17 511.54 378.13 510.06 378.10 C 509.37 371.03 502.87 366.33 496.11 365.94 C 493.88 366.54 491.43 366.89 489.66 368.47 C 488.59 369.93 487.90 371.62 487.16 373.26 C 488.39 375.46 489.33 378.33 492.06 379.07 C 499.68 382.29 509.31 382.15 514.92 389.06 C 521.59 398.03 516.65 413.05 505.89 416.28 C 504.22 416.96 502.07 416.96 501.02 418.65 L 501.40 417.68 C 497.58 417.82 493.67 417.55 490.11 416.08 C 487.48 415.03 485.20 412.89 482.21 413.11 C 481.90 414.18 481.61 415.25 481.32 416.34 C 480.39 416.33 478.53 416.33 477.60 416.33 C 477.62 409.61 477.59 402.88 477.63 396.16 C 479.10 396.18 480.57 396.21 482.05 396.25 C 482.59 400.54 483.48 405.16 486.80 408.24 C 490.92 412.13 497.24 415.13 502.82 412.65 C 505.66 411.63 508.68 409.23 508.72 405.97 C 509.15 402.55 505.55 400.38 502.78 399.37 C 495.51 397.05 487.68 395.50 481.70 390.42 C 476.68 383.52 476.76 372.95 482.74 366.66 Z" />
<path fill="#312e2f" d=" M 143.08 363.20 C 151.06 363.19 159.04 363.16 167.02 363.24 C 167.27 375.84 166.92 388.46 167.19 401.06 C 167.51 405.00 167.85 410.59 172.85 411.18 C 180.11 410.87 185.57 404.00 185.71 397.00 C 185.74 387.07 185.72 377.14 185.71 367.22 C 182.89 367.19 180.07 367.19 177.26 367.18 C 177.31 365.82 177.36 364.46 177.43 363.11 C 185.83 363.25 194.22 363.18 202.61 363.21 C 202.65 379.58 202.63 395.96 202.62 412.33 C 205.21 412.35 207.80 412.35 210.39 412.41 C 210.38 413.38 210.37 415.34 210.37 416.32 C 202.15 416.33 193.94 416.33 185.72 416.32 C 185.72 413.90 185.69 411.49 185.65 409.08 C 181.23 414.14 174.83 417.55 168.04 417.68 C 163.24 417.80 157.77 417.34 154.21 413.71 C 151.40 410.92 150.98 406.70 150.76 402.96 C 150.75 391.03 150.78 379.11 150.77 367.18 C 148.19 367.18 145.61 367.18 143.03 367.15 C 143.04 365.83 143.06 364.51 143.08 363.20 Z" />
<path fill="#312e2f" d=" M 729.94 363.23 C 737.94 363.13 745.95 363.22 753.95 363.21 C 754.45 376.61 753.65 390.05 754.38 403.44 C 754.29 406.92 756.15 410.67 759.92 411.16 C 767.54 410.83 772.88 403.23 772.74 396.01 C 772.71 386.40 772.72 376.79 772.72 367.18 C 769.69 367.17 766.67 367.17 763.66 367.18 C 763.65 365.85 763.65 364.52 763.67 363.20 C 772.32 363.15 780.97 363.18 789.62 363.22 C 789.61 379.59 789.65 395.96 789.60 412.33 C 792.18 412.38 794.75 412.38 797.35 412.41 C 797.35 413.38 797.35 415.34 797.36 416.31 C 789.14 416.35 780.92 416.29 772.70 416.34 C 772.68 413.92 772.68 411.50 772.69 409.08 C 767.80 414.64 760.51 418.13 753.03 417.70 C 748.75 417.46 743.69 416.98 740.85 413.34 C 738.28 410.57 737.82 406.61 737.73 403.00 C 737.76 391.07 737.75 379.13 737.74 367.19 C 735.19 367.17 732.61 367.35 730.09 366.94 C 729.97 365.70 729.93 364.46 729.94 363.23 Z" />
<path fill="#312e2f" d=" M 1004.42 363.22 C 1012.69 363.58 1020.88 362.48 1029.14 362.59 C 1029.13 379.18 1029.15 395.77 1029.13 412.36 C 1031.90 412.36 1034.69 412.38 1037.48 412.42 C 1037.47 413.40 1037.45 415.35 1037.44 416.32 C 1026.45 416.35 1015.46 416.28 1004.47 416.36 C 1004.41 415.03 1004.38 413.71 1004.36 412.39 C 1007.12 412.37 1009.87 412.36 1012.65 412.45 C 1013.00 397.38 1012.71 382.28 1012.79 367.20 C 1009.97 367.23 1007.15 367.20 1004.34 367.03 C 1004.36 365.75 1004.38 364.48 1004.42 363.22 Z" />
<path fill="#fcfdfd" d=" M 236.99 367.96 C 238.66 365.91 241.49 365.91 243.83 365.20 C 246.70 365.88 249.89 366.91 251.07 369.93 C 252.22 374.03 252.40 378.36 252.38 382.60 C 246.10 382.58 239.82 382.77 233.54 382.50 C 235.01 377.71 232.97 371.77 236.99 367.96 Z" />
<path fill="#fcfdfd" d=" M 434.59 366.71 C 439.36 364.68 445.65 365.85 448.52 370.45 C 452.78 376.83 450.17 384.94 451.64 392.05 C 450.79 398.85 451.74 407.08 445.97 412.04 C 439.90 417.30 429.59 412.50 428.48 404.89 C 426.96 395.32 426.60 385.48 428.34 375.92 C 429.11 372.21 431.10 368.48 434.59 366.71 Z" />
<path fill="#fcfdfd" d=" M 823.46 368.53 C 825.12 366.05 828.19 365.79 830.86 365.20 C 833.21 365.94 836.02 366.46 837.30 368.87 C 839.71 373.04 838.43 378.06 838.70 382.63 C 832.66 382.57 826.63 382.73 820.61 382.54 C 820.89 377.84 820.53 372.51 823.46 368.53 Z" />
<path fill="#fcfdfd" d=" M 1065.05 367.01 C 1068.62 364.73 1073.91 364.86 1077.12 367.77 C 1079.99 372.13 1079.43 377.63 1079.50 382.60 C 1073.46 382.65 1067.43 382.64 1061.41 382.60 C 1061.34 377.31 1060.78 370.96 1065.05 367.01 Z" />
<path fill="#fcfdfd" d=" M 1162.49 367.69 C 1165.33 366.75 1168.90 366.71 1171.42 368.59 C 1176.50 371.84 1178.22 378.27 1178.53 383.96 C 1178.27 391.29 1179.67 399.22 1175.89 405.92 C 1173.11 409.77 1168.65 413.84 1163.48 412.26 C 1158.28 410.19 1157.05 403.92 1156.44 399.00 C 1155.51 391.91 1155.50 384.64 1156.73 377.59 C 1157.69 373.90 1158.94 369.71 1162.49 367.69 Z" />
<path fill="#fcfdfd" d=" M 53.16 372.34 C 60.39 372.78 68.54 370.58 74.86 375.17 C 78.18 378.15 79.58 382.70 79.74 387.06 C 80.64 392.05 80.02 397.14 79.05 402.07 C 78.05 406.85 74.11 411.13 69.14 411.70 C 63.86 412.75 58.47 412.31 53.14 412.37 C 53.21 399.03 53.15 385.68 53.16 372.34 Z" />
<path fill="#fcfdfd" d=" M 640.17 372.31 C 647.52 372.83 656.00 370.41 662.18 375.64 C 666.72 379.79 666.59 386.35 667.12 391.99 C 666.66 398.54 666.55 406.54 660.20 410.37 C 653.95 413.22 646.85 412.22 640.18 412.37 C 640.14 399.02 640.14 385.67 640.17 372.31 Z" />
<path fill="#0d7ec1" d=" M 1575.59 378.89 C 1581.42 377.35 1588.42 377.81 1593.10 382.01 C 1602.18 388.80 1602.05 404.27 1592.85 410.88 C 1588.37 414.82 1582.06 414.91 1576.48 414.17 C 1570.29 412.36 1565.21 407.13 1563.71 400.85 C 1563.36 396.34 1563.05 391.46 1565.51 387.43 C 1567.50 383.29 1571.40 380.52 1575.59 378.89 Z" />
<path fill="#0d7ec1" d=" M 1939.24 378.32 C 1943.26 377.87 1947.56 378.09 1951.20 380.05 C 1956.10 382.53 1959.52 387.51 1960.50 392.88 C 1962.34 400.96 1957.75 409.87 1950.14 413.13 C 1946.63 414.82 1942.64 414.47 1938.89 414.36 C 1928.17 412.75 1921.46 400.14 1925.27 390.19 C 1927.20 383.96 1932.97 379.53 1939.24 378.32 Z" />
<path fill="#fcfdfd" d=" M 1941.46 381.55 C 1951.52 380.61 1960.33 391.57 1956.35 401.15 C 1954.18 409.51 1943.84 413.17 1936.34 409.76 C 1926.79 406.02 1925.04 391.13 1933.10 384.99 C 1935.41 382.96 1938.47 382.06 1941.46 381.55 Z" />
<path fill="#fcfdfd" d=" M 1576.30 382.55 C 1585.17 378.59 1596.55 386.29 1595.87 396.05 C 1597.09 404.78 1588.33 412.29 1579.94 411.01 C 1574.10 410.56 1568.86 406.07 1567.49 400.40 C 1565.21 393.45 1569.29 384.90 1576.30 382.55 Z" />
<path fill="#0d7ec1" d=" M 1574.59 385.77 C 1579.92 386.09 1585.73 384.59 1590.54 387.63 C 1590.69 390.06 1590.76 392.50 1590.82 394.94 C 1589.28 396.18 1587.61 397.24 1585.86 398.12 C 1587.53 401.00 1589.45 403.74 1591.13 406.62 C 1589.66 406.58 1588.25 406.55 1586.83 406.50 C 1585.22 403.71 1583.67 400.87 1581.78 398.26 C 1581.07 396.97 1577.68 396.96 1577.95 398.94 C 1577.65 401.53 1577.79 404.14 1577.75 406.74 C 1576.64 406.64 1575.55 406.55 1574.48 406.46 C 1574.63 399.56 1574.49 392.66 1574.59 385.77 Z" />
<path fill="#0d7ec1" d=" M 1935.67 385.78 C 1940.04 386.02 1944.57 385.19 1948.85 386.18 C 1952.45 387.39 1952.33 391.65 1951.50 394.69 C 1950.81 396.96 1948.15 397.18 1946.27 397.86 C 1948.37 400.65 1950.31 403.57 1951.94 406.67 C 1950.94 406.63 1948.96 406.54 1947.96 406.49 C 1946.17 403.50 1944.33 400.54 1942.44 397.62 C 1941.34 397.60 1940.27 397.58 1939.22 397.57 C 1939.23 400.63 1939.20 403.70 1938.86 406.76 C 1937.75 406.64 1936.66 406.53 1935.60 406.42 C 1935.76 399.54 1935.62 392.66 1935.67 385.78 Z" />
<path fill="#fcfdfd" d=" M 1939.24 388.45 C 1942.36 388.38 1945.55 388.50 1948.47 389.83 C 1949.96 395.48 1942.71 394.69 1939.17 394.84 C 1939.17 392.70 1939.19 390.57 1939.24 388.45 Z" />
<path fill="#fcfdfd" d=" M 1577.79 394.74 C 1577.79 392.69 1577.81 390.64 1577.82 388.59 C 1581.15 388.18 1584.61 388.33 1587.45 390.36 C 1587.49 390.99 1587.56 392.23 1587.60 392.85 C 1584.92 395.31 1581.11 394.76 1577.79 394.74 Z" />
</svg>
